HIERARCHY
ROOT Hips
{
  OFFSET 3.13124 94.3669 -3.18751
  CHANNELS  6 Xposition Yposition Zposition Zrotation Xrotation Yrotation
  JOINT LeftUpLeg
  {
    OFFSET 8.64259 1.95398 -2.38835
    CHANNELS 3 Zrotation Xrotation Yrotation
    JOINT LeftLeg
    {
      OFFSET 43.7702 0 0
      CHANNELS 3 Zrotation Xrotation Yrotation
      JOINT LeftFoot
      {
        OFFSET 40.6238 0 0
        CHANNELS 3 Zrotation Xrotation Yrotation
        JOINT LeftToeBase
        {
          OFFSET 12.7242 0 0
          CHANNELS 3 Zrotation Xrotation Yrotation
          End Site
          {
            OFFSET 0 0 0
          }
        }
      }
    }
  }
  JOINT RightUpLeg
  {
    OFFSET -8.2249 1.95398 -2.59336
    CHANNELS 3 Zrotation Xrotation Yrotation
    JOINT RightLeg
    {
      OFFSET 43.5653 0 0
      CHANNELS 3 Zrotation Xrotation Yrotation
      JOINT RightFoot
      {
        OFFSET 40.6238 0 0
        CHANNELS 3 Zrotation Xrotation Yrotation
        JOINT RightToeBase
        {
          OFFSET 12.7242 0 0
          CHANNELS 3 Zrotation Xrotation Yrotation
          End Site
          {
            OFFSET 0 0 0
          }
        }
      }
    }
  }
  JOINT Spine
  {
    OFFSET 0.165834 0.87714 6.61349
    CHANNELS 3 Zrotation Xrotation Yrotation
    JOINT Spine1
    {
      OFFSET 7.38962 1.71661e-005 0
      CHANNELS 3 Zrotation Xrotation Yrotation
      JOINT Spine2
      {
        OFFSET 11.9445 1.14441e-005 0
        CHANNELS 3 Zrotation Xrotation Yrotation
        JOINT Spine3
        {
          OFFSET 14.7254 4.19617e-005 0
          CHANNELS 3 Zrotation Xrotation Yrotation
          JOINT Spine4
          {
            OFFSET 10.9679 0 0
            CHANNELS 3 Zrotation Xrotation Yrotation
            JOINT RightShoulder
            {
              OFFSET 2.46616 -1.6653 3.69651
              CHANNELS 3 Zrotation Xrotation Yrotation
              JOINT RightArm
              {
                OFFSET 13.0012 0 0
                CHANNELS 3 Zrotation Xrotation Yrotation
                JOINT RightForeArm
                {
                  OFFSET 28.7848 1.52588e-005 0
                  CHANNELS 3 Zrotation Xrotation Yrotation
                  JOINT RightHand
                  {
                    OFFSET 26.5688 1.52588e-005 0
                    CHANNELS 3 Zrotation Xrotation Yrotation
                    End Site
                    {
                      OFFSET 0 0 0
                    }
                  }
                }
              }
            }
            JOINT LeftShoulder
            {
              OFFSET 2.38034 -1.29275 -3.75231
              CHANNELS 3 Zrotation Xrotation Yrotation
              JOINT LeftArm
              {
                OFFSET 16.3182 6.10352e-005 0
                CHANNELS 3 Zrotation Xrotation Yrotation
                JOINT LeftForeArm
                {
                  OFFSET 27.0901 0 0
                  CHANNELS 3 Zrotation Xrotation Yrotation
                  JOINT LeftHand
                  {
                    OFFSET 24.5451 1.52588e-005 0
                    CHANNELS 3 Zrotation Xrotation Yrotation
                    End Site
                    {
                      OFFSET 0 0 0
                    }
                  }
                }
              }
            }
            JOINT Neck
            {
              OFFSET 5.0226 -0.0266342 0
              CHANNELS 3 Zrotation Xrotation Yrotation
              JOINT Head
              {
                OFFSET 6.69363 2.86102e-005 0
                CHANNELS 3 Zrotation Xrotation Yrotation
                End Site
                {
                  OFFSET 0 0 0
                }
              }
            }
          }
        }
      }
    }
  }
}
MOTION
Frames:	9
Frame Time:	0.0333333
-20.9363 90.8842 -125.814 -99.7325 -20.5826 -85.7361 -170.202 21.1866 89.9457 -49.1726 -3.65215 -1.4338 69.7451 12.043 6.09956 28.7808 6.9286e-006 7.44409e-006 -179.028 13.8846 86.2021 -46.626 49.7912 3.84433 57.8797 22.5307 14.6191 28.7808 1.60657e-005 2.82454e-005 0.691878 10.0215 -88.9905 6.88654 1.44686 -1.71149 -4.78481 1.37012 -1.7735 -27.3214 1.89425 -1.19757 -7.30874 1.89429 -1.19755 97.1193 -1.3641 -101.309 18.6555 9.20137 -83.0333 -3.39732 -0.247253 -58.5289 -5.37983 -0.320009 -0.0162356 -85.0531 -15.833 79.0149 -28.6737 4.30983 -84.9501 0.329799 2.96988 -70.6356 16.4928 -5.62787 -36.7324 33.3216 -1.39673 -17.6331 -37.7356 -1.98034 26.0514 
-24.1652 91.244 -125.574 -101.58 -25.4415 -87.7791 -169.579 18.7349 89.944 -50.792 -0.735335 -0.905068 67.9555 11.1603 5.80817 28.7808 6.9286e-006 7.44409e-006 -179.635 12.9117 83.7772 -37.314 44.4556 3.16704 59.807 21.2971 13.2876 28.7808 1.60657e-005 2.82454e-005 0.539335 9.25726 -88.9997 8.39798 0.968449 -1.73434 -3.27381 0.891201 -1.77528 -25.8056 1.44491 -1.36318 -5.79299 1.4449 -1.3632 95.3946 1.34491 -109.987 21.1719 13.5178 -76.2899 -3.38196 -0.234783 -54.8772 -5.37983 -0.320009 -0.0162356 -87.8995 -18.9837 73.4747 -24.2966 -5.11489 -84.3581 -2.9997 2.57264 -67.9237 17.1993 -4.93472 -32.0568 6.56006 2.27273 -15.0257 -20.9196 1.1467 24.1332 
-27.267 91.6326 -124.897 -102.035 -29.7333 -89.7196 -169.177 16.9189 89.4497 -51.1127 1.29266 -0.996663 66.0092 11.3772 6.10536 28.7808 6.9286e-006 7.44409e-006 178.162 9.10067 80.4896 -18.4266 34.4595 2.28629 55.7752 23.1208 15.6319 28.7808 1.60657e-005 2.82454e-005 0.590315 8.99009 -88.8157 8.93794 1.1349 -1.17999 -2.7331 1.08187 -1.22879 -25.27 1.43705 -0.784352 -5.25736 1.43704 -0.784351 97.3611 5.81669 -105.815 22.0649 19.5639 -80.0718 -3.36049 -0.214256 -49.3991 -5.37983 -0.320009 -0.0162356 -85.3669 -8.58992 75.1742 -30.0173 -12.7247 -90.6015 6.05333 5.4125 -64.28 25.9354 -5.27048 -24.8414 -1.34022 2.30459 -18.6096 -17.0466 1.2495 25.797 
-30.8733 91.2456 -124.288 -103.004 -33.9423 -92.8627 -168.341 15.2633 88.2988 -53.362 4.18069 -0.272041 65.4374 11.7106 6.29015 28.7808 6.9286e-006 7.44409e-006 175.301 8.06487 76.2158 -4.32374 24.6795 1.62074 39.6549 14.9639 14.105 28.7808 1.60657e-005 2.82454e-005 0.337881 8.84056 -87.2945 9.26499 1.16745 -0.811182 -2.40571 1.1306 -0.861776 -24.9444 1.35725 -0.42277 -4.93172 1.35725 -0.422772 99.3595 11.5363 -100.773 22.3302 25.1644 -84.6492 -3.33332 -0.182127 -41.6076 -5.37983 -0.320009 -0.0162356 -82.4656 1.73362 79.072 -38.1568 -20.5147 -96.9276 8.06974 2.9705 -55.8711 14.4362 -6.41326 -43.5748 -5.98449 2.66755 -22.9133 -15.7284 1.18013 28.7807 
-35.4292 89.811 -123.418 -103.586 -38.8526 -97.362 -168.019 14.2512 85.7292 -57.8428 8.55177 1.89543 67.0934 12.7054 6.54248 28.7808 6.9286e-006 7.44409e-006 174.191 13.7674 70.0933 -4.45612 19.6419 1.24984 26.9755 16.5145 19.5045 28.7808 1.60657e-005 2.82454e-005 -0.292206 8.47465 -84.5668 9.94367 1.25264 -0.385223 -1.72675 1.23447 -0.439993 -24.2667 1.31047 0.0091178 -4.25409 1.3105 0.00911881 100.711 17.5198 -97.4747 22.8592 29.656 -87.5236 -3.29344 -0.107222 -25.9583 -5.37983 -0.320009 -0.0162356 -80.7807 11.3146 80.3304 -44.7196 -29.095 -100.301 15.068 3.49557 -56.8932 4.18379 0.156055 -3.07809 -11.8521 3.76508 -26.0908 -13.3868 1.65903 30.6316 
-40.042 89.0429 -122.568 -102.254 -43.9803 -99.0436 -169.005 14.5624 84.4537 -61.1194 13.8229 5.54179 67.902 11.1019 5.51228 28.7808 6.9286e-006 7.44409e-006 173.774 20.1032 65.8628 -4.28918 15.6285 0.980395 13.1098 18.5567 27.9229 28.7808 1.60657e-005 2.82454e-005 -1.03446 8.02335 -83.1836 10.7786 1.21128 -0.233054 -0.891843 1.19988 -0.286151 -23.4315 1.22532 0.141829 -3.41887 1.22532 0.141812 101.784 24.162 -95.116 22.7497 34.5996 -91.9885 -3.27559 0.00830658 -4.29868 -5.37983 -0.320009 -0.0162356 -79.4563 17.8131 82.8199 -45.6976 -38.793 -100.656 24.3717 12.1052 -47.316 14.1956 -0.584708 -7.84048 -16.1168 5.45477 -25.992 -9.6541 3.3768 31.2317 
-44.1316 89.2494 -121.486 -101.723 -48.8942 -99.7806 -169.914 13.3968 84.7298 -61.7171 18.1664 8.71727 66.8898 12.0048 6.06213 28.7808 6.9286e-006 7.44409e-006 173.481 23.1056 63.4239 -4.67484 23.7979 1.58572 10.0673 23.8604 37.1327 28.7808 1.60657e-005 2.82454e-005 -1.28623 7.75979 -82.973 11.2883 1.27698 -0.247531 -0.38207 1.26488 -0.303514 -22.9222 1.29233 0.147776 -2.90959 1.29233 0.14776 102.735 32.4106 -91.5968 22.511 38.8685 -82.7409 -3.2748 0.00468576 -4.91076 -5.37983 -0.320009 -0.0162356 -78.2526 23.1431 88.5731 -42.9154 -46.8828 -98.0199 19.5891 10.4607 -38.9 18.0459 -0.484128 -6.49855 -17.1135 6.08504 -25.333 -7.04875 4.56425 30.4452 
-47.6078 90.0695 -120.32 -101.231 -53.083 -99.9214 -169.802 11.3072 85.4961 -61.0448 25.8588 11.5422 61.2973 20.631 11.8337 28.7808 6.9286e-006 7.44409e-006 173.306 24.1566 62.3732 -5.02606 29.4616 2.05621 3.53213 21.342 37.9445 28.7808 1.60657e-005 2.82454e-005 -1.20189 7.65908 -83.0251 11.5243 1.6325 -0.196152 -0.145648 1.6223 -0.267845 -22.6889 1.61595 0.303681 -2.67625 1.61596 0.303669 102.271 39.1161 -81.4129 21.914 40.4245 -76.516 -3.27495 0.00468572 -4.91076 -5.37983 -0.320009 -0.0162356 -77.2304 41.4255 94.4601 -37.8138 -53.3769 -78.8396 17.4569 10.8833 -29.988 24.6501 -1.45262 -10.0902 -16.6212 5.51454 -27.3751 -3.30979 5.03604 33.1731 
-50.9415 91.1381 -119.01 -101.617 -57.9018 -101.034 -168.829 9.1616 87.2304 -57.4017 25.4219 11.2102 58.5321 19.3217 11.5869 28.7808 6.9286e-006 7.44409e-006 173.019 23.17 61.8157 -5.40765 34.5662 2.53348 0.505609 21.5105 40.4768 28.7808 1.60657e-005 2.82454e-005 -1.19445 7.63592 -82.9759 11.5653 1.55417 -0.184519 -0.104735 1.54453 -0.252767 -22.6472 1.53774 0.291208 -2.63456 1.53774 0.291208 100.497 44.4372 -71.4281 21.3371 40.8743 -71.3797 -3.27517 0.0046843 -4.91075 -5.37983 -0.320009 -0.0162356 -83.0235 67.0053 109.029 -40.2 -46.1399 -55.1759 19.1424 16.6329 -25.5217 29.9493 -0.441972 -5.56003 -14.7109 5.15546 -26.4617 -1.57261 5.63015 34.2135 
